<svg xmlns="http://www.w3.org/2000/svg" width="64" height="64" fill="none"><path fill="#fff" d="M0 0h64v64H0z"/><path fill="#26A69A" fill-rule="evenodd" d="M32 64c17.673 0 32-14.327 32-32C64 14.327 49.673 0 32 0 14.327 0 0 14.327 0 32c0 17.673 14.327 32 32 32Z" clip-rule="evenodd"/><path fill="#00E5FF" fill-rule="evenodd" d="M53.907 55.326A31.888 31.888 0 0 1 32 64a31.886 31.886 0 0 1-21.7-8.482c.05-.153.104-.307.158-.462 1.042-2.971 1.288-5.157 6.733-7.289 5.445-2.132 22.522-2.182 28.784-.239 6.26 1.944 6.91 4.988 7.79 7.39.049.132.096.269.142.408Z" clip-rule="evenodd"/><path fill="#fff" fill-rule="evenodd" d="M21.181 46.81c6.074-.937 15.638-.919 21.637.027-.189 4.043-4.96 7.28-10.818 7.28-5.871 0-10.65-3.251-10.819-7.307Z" clip-rule="evenodd"/><path fill="#FFB74D" fill-rule="evenodd" d="M23.059 46.562c5.373-.602 12.553-.59 17.882.022v.004c0 3.379-4.003 6.118-8.941 6.118-4.938 0-8.941-2.74-8.941-6.118v-.026Z" clip-rule="evenodd"/><path fill="#FFB74D" fill-rule="evenodd" d="M20.625 25.09c1.33-6.045 5.919-10.502 11.375-10.502 5.473 0 10.074 4.485 11.388 10.56.16-.073.345-.103.557-.084 1.276.117 1.26 1.802 1.078 3.874-.179 2.044-.937 3.652-1.704 3.629-1.01 4.278-3.66 7.728-7.084 9.314v5.18A4.234 4.234 0 0 1 32 51.293a4.233 4.233 0 0 1-4.235-4.234v-5.179c-3.43-1.589-6.083-5.05-7.09-9.338-.702-.209-1.358-1.722-1.523-3.605-.181-2.072-.198-3.757 1.078-3.874.144-.013.275-.003.395.027Z" clip-rule="evenodd"/><path fill="#fff" fill-rule="evenodd" d="M32.984 26.825a.484.484 0 0 0-.038-.002h-1.891l-.039.002C30.724 25.228 28.958 24 26.824 24c-2.34 0-4.236 1.475-4.236 3.294 0 1.82 1.896 3.294 4.236 3.294 2.134 0 3.9-1.228 4.192-2.825a.486.486 0 0 0 .039.002h1.89a.44.44 0 0 0 .039-.002c.292 1.597 2.058 2.825 4.192 2.825 2.34 0 4.236-1.475 4.236-3.294 0-1.82-1.896-3.294-4.236-3.294-2.134 0-3.9 1.228-4.192 2.825Z" clip-rule="evenodd"/><path fill="#37474F" fill-rule="evenodd" d="M26.823 29.647c1.82 0 3.295-1.053 3.295-2.353 0-1.3-1.475-2.353-3.294-2.353-1.82 0-3.295 1.054-3.295 2.353 0 1.3 1.475 2.353 3.294 2.353zm10.353 0c1.82 0 3.295-1.053 3.295-2.353 0-1.3-1.475-2.353-3.295-2.353-1.819 0-3.294 1.054-3.294 2.353 0 1.3 1.475 2.353 3.294 2.353z" clip-rule="evenodd"/><path fill="#162827" fill-rule="evenodd" d="M23.622 13.6c-4.567 4.12-3.878 11.593-3.878 11.593s2.12-.706 2.165 3.52c.414-.228.902-1.683 1.104-2.586 4.096-1.856 4.803-4.405 5.203-6.141 1.62 6.29 12.374 6.223 12.848 6.164-.024.583.84 2.22 1.33 2.54.018-4.074 1.747-3.552 1.747-3.552s.693-8.489-5.424-12.334c.1-.27.671-1.402 3.22-1.532-3.738-1.862-6.839-.025-6.839-.025s1.341-3.112 4.41-3.242c-4.437-.46-7.428.548-9.473 2.858 1.002-4.071 2.814-4.355 4.631-5.376-7.372 1.477-10.389 6.77-11.044 8.113Z" clip-rule="evenodd"/></svg>