<svg xmlns="http://www.w3.org/2000/svg" data-name="Layer 1" viewBox="0 0 32 32"><path fill="#4ebaea" d="M29.5,26.31V31.5H2.5V26.31a5.99044,5.99044,0,0,1,4.7-5.85L16,18.5l8.8,1.96A5.99044,5.99044,0,0,1,29.5,26.31Z"/><path fill="#2e99d4" d="M24.8,20.46,16,18.5,7.2,20.46a5.99044,5.99044,0,0,0-4.7,5.85v1a5.99044,5.99044,0,0,1,4.7-5.85L16,19.5l8.8,1.96a5.99044,5.99044,0,0,1,4.7,5.85v-1A5.99044,5.99044,0,0,0,24.8,20.46Z"/><path fill="#2e99d4" d="M24,27.5v4H23v-4a.5.5,0,0,1,1,0Z"/><path fill="#ffdaa7" d="M19,16.5v2a3,3,0,0,1-6,0v-2Z"/><path fill="#2e99d4" d="M8,31.5v-4a.5.5,0,0,1,1,0v4Z"/><path fill="#ffdaa7" d="M22.09756,5.84959v6.21952A6.09755,6.09755,0,0,1,16,18.16667h0a6.09755,6.09755,0,0,1-6.09755-6.09755V6.84959Z"/><path fill="#fdc475" d="M19,16.5v1.88a6.09135,6.09135,0,0,1-6,0V16.5Z"/><path fill="#ffdaa7" d="M22.09756,5.84959v6.21952A6.09755,6.09755,0,0,1,16,18.16667h0a6.09755,6.09755,0,0,1-6.09755-6.09755V6.84959Z"/><path fill="#58565d" d="M9.90244,10.84959q.343-1.76574.686-3.5315a6.45291,6.45291,0,0,0,1.8968.562c1.81648.24051,3.76047-.61212,5.92842-.90338a3.88016,3.88016,0,0,1,2.3927-.02352,2.33191,2.33191,0,0,1,.80647.68941,2.91792,2.91792,0,0,1,.48474,1.64908c.00081.01842.00018.00753,0,.83105,0,.14478,0,.58447,0,.72688a4.34818,4.34818,0,0,0,.80666-1.03187,4.61771,4.61771,0,0,0,.53447-2.61521A5.28712,5.28712,0,0,0,22.5,4.5a5.35693,5.35693,0,0,0-3-2c-1.44568-.3324-2.8573.057-4.75633.58086a12.54969,12.54969,0,0,1-2.16878.39212A3.88856,3.88856,0,0,1,11.5,3.5c-1.28859-.27537-1.8539-2.3902-2-3A4.22889,4.22889,0,0,0,7.83044,4.10553a3.49423,3.49423,0,0,0,.8779,1.81522,6.79422,6.79422,0,0,0,1.19409,4.92885Z"/><path fill="#fdc475" d="M22.0976 10.29163l-.00006-.00073c-.00006.19037 0 .45416.00006.55872l.00006-.00006C22.09784 10.30176 22.09827 10.30774 22.0976 10.29163zM22.0976 9.29163a2.91851 2.91851 0 0 0-.48474-1.649 2.3316 2.3316 0 0 0-.80652-.68939 3.88019 3.88019 0 0 0-2.3927.0235c-2.16791.29126-4.11194 1.14386-5.92841.90338a6.45148 6.45148 0 0 1-1.89679-.562q-.343 1.76578-.686 3.53156h0c.22864-1.17719.45728-1.35437.686-2.53156a6.45148 6.45148 0 0 0 1.89679.562c1.81647.24048 3.7605-.61212 5.92841-.90338a3.88019 3.88019 0 0 1 2.3927-.0235 2.3316 2.3316 0 0 1 .80652.68939 2.91691 2.91691 0 0 1 .48468 1.64807l.00006-.168C22.09778 9.29919 22.09839 9.31006 22.0976 9.29163z"/></svg>