<svg xmlns="http://www.w3.org/2000/svg" enable-background="new 0 0 64 64" viewBox="0 0 64 64"><path fill="#123046" d="M35.11,0C24.61,0,16.09,9.45,16.09,21.11c0,1.28,0.11,2.53,0.31,3.75c-0.1,0-0.2-0.02-0.31-0.02
			c-5.38,0-9.75,4.36-9.75,9.75c0,5.38,4.36,9.75,9.75,9.75c3.85,0,7.16-2.23,8.75-5.47c2.96,2.12,6.49,3.35,10.28,3.35
			c10.51,0,19.03-9.45,19.03-21.11C54.14,9.45,45.62,0,35.11,0z"/><path fill="#8a749b" d="M57.66,58.26V64H12.85v-5.74c0-5.35,4.33-9.67,9.67-9.67h25.47C53.33,48.59,57.66,52.92,57.66,58.26z"/><path fill="#e0ebf0" d="M40.5,48.59c0,2.9-2.35,5.25-5.25,5.25c-2.9,0-5.25-2.35-5.25-5.25h-2.46c0,4.26,3.45,7.7,7.71,7.7
							c4.25,0,7.7-3.45,7.7-7.7H40.5z"/><path fill="#f6b193" d="M35.25 53.97L35.25 53.97c-2.95 0-5.35-2.39-5.35-5.35v-5.25H40.6v5.25C40.6 51.58 38.21 53.97 35.25 53.97zM53.73 26.19c0 2.22-1.54 4.02-3.43 4.02s-3.43-1.8-3.43-4.02c0-2.22 1.54-4.02 3.43-4.02S53.73 23.97 53.73 26.19zM23.64 26.19c0 2.22-1.54 4.02-3.43 4.02-1.9 0-3.43-1.8-3.43-4.02 0-2.22 1.54-4.02 3.43-4.02C22.11 22.17 23.64 23.97 23.64 26.19z"/><path fill="#f6cbad" d="M27.13,16.43c-0.43-0.05-0.86-0.07-1.28-0.09c-1.72-0.1-3.39-0.61-4.87-1.48l0,0
										c-0.53-0.31-1.2,0.08-1.18,0.7l0.42,14.07c0,8.43,6.9,15.54,15.33,15.38c8.18-0.16,14.76-6.83,14.76-15.04V16.79
										c0-2.74-2.87-4.61-5.33-3.41c-0.03,0.02-0.07,0.03-0.1,0.05c-3.18,1.62-6.6,2.72-10.15,2.89
										c-0.65,0.03-1.29,0.07-1.94,0.12C30.79,16.63,28.91,16.62,27.13,16.43z"/><path fill="#123046" d="M30.24 27.15c0 .82-.67 1.49-1.49 1.49-.82 0-1.49-.67-1.49-1.49 0-.82.67-1.49 1.49-1.49C29.57 25.67 30.24 26.33 30.24 27.15zM30.05 23.87l-3.62.37c-.49.05-.94-.31-.99-.8l0 0c-.05-.49.31-.94.8-.99l3.62-.37c.49-.05.94.31.99.8l0 0C30.9 23.38 30.54 23.82 30.05 23.87zM43.35 27.15c0 .82-.67 1.49-1.49 1.49-.82 0-1.49-.67-1.49-1.49 0-.82.67-1.49 1.49-1.49C42.68 25.67 43.35 26.33 43.35 27.15zM44.04 24.36l-3.6-.52c-.49-.07-.83-.53-.76-1.02l0 0c.07-.49.53-.83 1.02-.76l3.6.52c.49.07.83.53.76 1.02l0 0C44.99 24.08 44.54 24.43 44.04 24.36z"/><g><path fill="#882537" d="M40.63,33.25v0.17c0.01,1.79-0.87,3.38-2.21,4.35c-0.89,0.66-1.99,1.04-3.18,1.04
			c-1.19,0-2.29-0.38-3.18-1.04c-1.33-0.98-2.19-2.56-2.2-4.34v-0.19H40.63z"/><path fill="#e3344a" d="M38.43,37.78c-0.89,0.66-1.99,1.04-3.18,1.04c-1.19,0-2.29-0.38-3.18-1.04c0.58-1.16,1.79-1.96,3.18-1.96
			C36.64,35.82,37.84,36.62,38.43,37.78z"/></g></svg>