<svg xmlns="http://www.w3.org/2000/svg" viewBox="0 0 64 64"><path fill="#292f64" d="M63.71 56.72c-1.93-8.41-5.52-13.53-18.17-14.8-2.22-.53-3.63-2.39-4.4-3.82 0 0 0-.01-.01-.01 2.91-3.26 4.82-8.05 5.03-13.5l.01-.01c1.6-1.76 4.36-5.97 2.7-12.73-1.92-7.86-9.38-7.96-11.68-7.8C36.2 2.45 34.68 1.3 32.7.6c-2.62-.91-5.6-.78-8.39.35-4.21 1.72-11.35 6.08-11.7 15.92-.43 12.11 8.5 20.48 8.5 20.48s-.06-.68-.06-1.74c.15.24.29.49.45.73.42.63.87 1.22 1.36 1.76-.77 1.44-2.15 3.29-4.33 3.82C5.76 43.2 2.27 48.11.29 56.72c-.16.71.22 1.43.9 1.69C10.96 62.12 21.13 64 31.4 64c10.26 0 20.82-1.88 31.37-5.58.7-.24 1.11-.97.94-1.7zm-42.05-26.2c.68-2.73 2.1-5.54 4.97-6.88 3.01-1.4 4.87-3.19 4.87-3.19l-.59 2.77s4.49-2.27 6.37-5.75c1.46 4.87 4.34 6.95 5.93 7.76-.33 4.75-2.11 8.84-4.68 11.44-.13.09-.25.2-.34.35-1.77 1.65-3.9 2.61-6.19 2.61-2.3 0-4.5-1-6.34-2.8l-.02-.02c-.01 0-.01-.01-.02-.01-1.13-1.12-2.84-3.77-3.96-6.28zM32 56.69c-6.18 0-11.51-4.91-13.13-11.89.07-.01.13-.02.18-.03 2.42-.56 4.5-2.18 6-4.64 2.07 1.56 4.46 2.4 6.95 2.4 2.53 0 4.89-.88 6.95-2.41l.01.01c1.51 2.47 3.59 4.09 6 4.64l.18.03C43.52 51.78 38.18 56.69 32 56.69z"/></svg>