<svg xmlns="http://www.w3.org/2000/svg" enable-background="new 0 0 64 64" viewBox="0 0 64 64"><path fill="#e86143" d="M54.28,32.8c0-2.33-1.88-4.21-4.21-4.21V18.07c0-4.99-2.02-9.51-5.3-12.78C41.51,2.02,36.99,0,32,0
				c-9.98,0-18.08,8.09-18.08,18.07v10.51c-2.33,0.01-4.21,1.89-4.21,4.21c0,2.25,1.75,4.08,3.96,4.2c-0.3,0.58-0.46,1.24-0.46,1.93
				c0,0.86,0.26,1.67,0.71,2.34c0.75,1.13,2.04,1.88,3.51,1.88c0.51,0,0.99-0.09,1.43-0.26c-0.01,0.09-0.01,0.17-0.01,0.26
				c0,0.46,0.07,0.89,0.21,1.3c0.55,1.69,2.13,2.91,4.01,2.91c1.87,0,3.46-1.22,4.01-2.91c0.13-0.41,0.21-0.85,0.21-1.3
				c0-0.68-0.16-1.32-0.45-1.88l10.34-0.01c-0.28,0.57-0.45,1.2-0.45,1.88c0,0.46,0.07,0.9,0.21,1.31c0.55,1.69,2.14,2.9,4.01,2.9
				c2.33,0,4.21-1.88,4.21-4.21c0-0.09,0-0.17-0.01-0.26c0.44,0.17,0.93,0.26,1.43,0.26c1.47,0,2.76-0.75,3.51-1.89
				c0.44-0.67,0.71-1.47,0.71-2.33c0-0.69-0.17-1.35-0.47-1.92C52.52,36.88,54.28,35.04,54.28,32.8z"/><path fill="#5ab57a" d="M53.69,58.45V64H10.31v-5.55c0-5.17,4.19-9.36,9.36-9.36h24.66C49.5,49.08,53.69,53.27,53.69,58.45z"/><path fill="#fff" d="M35.85,46.59c-1.5,0-2.86,0.61-3.85,1.58c-0.99-0.98-2.35-1.58-3.85-1.58c-3.03,0-5.48,2.45-5.48,5.48
					s2.45,5.48,5.48,5.48c1.5,0,2.86-0.61,3.85-1.58c0.99,0.98,2.35,1.58,3.85,1.58c3.03,0,5.48-2.45,5.48-5.48
					S38.88,46.59,35.85,46.59z"/><path fill="#f8d6a2" d="M32 54.94L32 54.94c-2.86 0-5.17-2.32-5.17-5.17v-5.08h10.35v5.08C37.17 52.62 34.86 54.94 32 54.94zM49.88 28.05c0 2.15-1.49 3.89-3.32 3.89-1.84 0-3.32-1.74-3.32-3.89 0-2.15 1.49-3.89 3.32-3.89C48.4 24.16 49.88 25.9 49.88 28.05zM20.76 28.05c0 2.15-1.49 3.89-3.32 3.89-1.84 0-3.32-1.74-3.32-3.89 0-2.15 1.49-3.89 3.32-3.89C19.27 24.16 20.76 25.9 20.76 28.05z"/><path fill="#f9e4c0" d="M46.56,18.95v12.74c0,7.95-6.37,14.41-14.28,14.56c-8.16,0.15-14.84-6.73-14.84-14.89l-0.41-13.62
									c0,0,4.51,2.26,7.86-1.4c0,0,5.5,1.67,6.25-1.52c0,0,3.18,4.41,7.29,1.98C38.43,16.81,41.6,20.95,46.56,18.95z"/><path fill="#e7354a" d="M35.35,35.08c0,1.85-1.5,3.35-3.35,3.35s-3.35-1.5-3.35-3.35s1.5-0.16,3.35-0.16S35.35,33.23,35.35,35.08z
					"/><path fill="#fff" d="M32.86 58.86c0 .47-.39.86-.86.86-.47 0-.86-.38-.86-.86 0-.47.39-.86.86-.86C32.47 58 32.86 58.38 32.86 58.86zM32.86 62.13c0 .47-.39.86-.86.86-.47 0-.86-.38-.86-.86 0-.47.39-.86.86-.86C32.47 61.27 32.86 61.65 32.86 62.13z"/><path fill="#123046" d="M27.15,27.32c0,0.79-0.64,1.44-1.44,1.44c-0.79,0-1.44-0.64-1.44-1.44c0-0.79,0.64-1.44,1.44-1.44
				C26.5,25.89,27.15,26.53,27.15,27.32z"/><path fill="#f2a384" d="M26.96,24.15l-3.5,0.36c-0.48,0.05-0.91-0.3-0.96-0.78l0,0c-0.05-0.48,0.3-0.91,0.78-0.96l3.5-0.36
				c0.48-0.05,0.91,0.3,0.96,0.78l0,0C27.79,23.67,27.44,24.1,26.96,24.15z"/><path fill="#123046" d="M39.83,27.32c0,0.79-0.64,1.44-1.44,1.44c-0.79,0-1.44-0.64-1.44-1.44c0-0.79,0.64-1.44,1.44-1.44
				C39.19,25.89,39.83,26.53,39.83,27.32z"/><path fill="#f2a384" d="M40.51,24.62l-3.49-0.5c-0.48-0.07-0.81-0.51-0.74-0.99l0,0c0.07-0.48,0.51-0.81,0.99-0.74l3.49,0.5
				c0.48,0.07,0.81,0.51,0.74,0.99l0,0C41.43,24.35,40.98,24.69,40.51,24.62z"/></svg>